<svg width="29.94" height="29.94" xmlns="http://www.w3.org/2000/svg">
 <g>
  <title>background</title>
  <rect x="-1" y="-1" width="3.880651" height="3.880651" id="canvas_background" fill="none"/>
 </g>

 <g>
  <title>Layer 1</title>
  <rect id="svg_33" height="51.660141" width="46.77733" y="-12.253054" x="-6.758049" stroke-opacity="null" stroke-width="null" stroke="null" fill="#ffffff"/>
  <g stroke="null" id="svg_1">
   <path stroke="null" d="m28.219229,-0.976156l-28.133342,0c-1.472763,0 -2.662817,1.188937 -2.662817,2.659465l0,26.609178c0,1.466058 1.190055,2.658348 2.662817,2.658348l28.133342,0c1.466058,0 2.659465,-1.191172 2.659465,-2.658348l0,-26.609178c-0.001117,-1.470528 -1.194524,-2.659465 -2.659465,-2.659465zm-8.308035,9.479094c-0.691684,-0.404507 -1.240339,-0.72409 -1.929788,-0.72409c-0.674923,0 -1.251513,0.168731 -1.546513,0.452556c-0.294999,0.28159 -0.441382,0.826893 -0.441382,1.632554l0,1.19229l3.608157,0l-0.781078,3.316509l-2.827079,0l0,11.020019l-4.532265,0l0,-11.020019l-2.11528,0l0,-3.316509l2.117515,0l0,-1.26604c0,-1.333085 0.159791,-2.130924 0.474904,-2.789086c0.313996,-0.655927 0.922991,-1.386721 1.769997,-1.800167c0.845889,-0.412329 2.097402,-0.620169 3.392494,-0.620169c1.327498,0 2.364466,0.442499 3.636092,0.798957l-0.825775,3.123195z" id="svg_2" fill="#f14d34"/>
   <g stroke="null" id="svg_3"/>
   <g stroke="null" id="svg_4"/>
   <g stroke="null" id="svg_5"/>
   <g stroke="null" id="svg_6"/>
   <g stroke="null" id="svg_7"/>
   <g stroke="null" id="svg_8"/>
   <g stroke="null" id="svg_9"/>
   <g stroke="null" id="svg_10"/>
   <g stroke="null" id="svg_11"/>
   <g stroke="null" id="svg_12"/>
   <g stroke="null" id="svg_13"/>
   <g stroke="null" id="svg_14"/>
   <g stroke="null" id="svg_15"/>
   <g stroke="null" id="svg_16"/>
   <g stroke="null" id="svg_17"/>
  </g>
  <g id="svg_18"/>
  <g id="svg_19"/>
  <g id="svg_20"/>
  <g id="svg_21"/>
  <g id="svg_22"/>
  <g id="svg_23"/>
  <g id="svg_24"/>
  <g id="svg_25"/>
  <g id="svg_26"/>
  <g id="svg_27"/>
  <g id="svg_28"/>
  <g id="svg_29"/>
  <g id="svg_30"/>
  <g id="svg_31"/>
  <g id="svg_32"/>
 </g>
</svg>