<svg width="474" height="474" xmlns="http://www.w3.org/2000/svg">

 <g>
  <title>background</title>
  <rect fill="none" id="canvas_background" height="402" width="582" y="-1" x="-1"/>
 </g>
 <g>
  <title>Layer 1</title>
  <g id="svg_1">
   <path fill="#ffffff" id="svg_2" d="m437.5,59.3l-401,0c-20.1,0 -36.5,16.4 -36.5,36.5l0,282.4c0,20.1 16.4,36.5 36.5,36.5l401,0c20.1,0 36.5,-16.4 36.5,-36.5l0,-282.4c0,-20.1 -16.4,-36.5 -36.5,-36.5zm-5.3,27l-192.7,164.8l-192.7,-164.8l385.4,0zm14.8,291.9c0,5.2 -4.3,9.5 -9.5,9.5l-401,0c-5.2,0 -9.5,-4.3 -9.5,-9.5l0,-273.3l203.7,174.2c0.1,0.1 0.3,0.2 0.4,0.3c0.1,0.1 0.3,0.2 0.4,0.3c0.3,0.2 0.5,0.4 0.8,0.5c0.1,0.1 0.2,0.1 0.3,0.2c0.4,0.2 0.8,0.4 1.2,0.6c0.1,0 0.2,0.1 0.3,0.1c0.3,0.1 0.6,0.3 1,0.4c0.1,0 0.3,0.1 0.4,0.1c0.3,0.1 0.6,0.2 0.9,0.2c0.1,0 0.3,0.1 0.4,0.1c0.3,0.1 0.7,0.1 1,0.2c0.1,0 0.2,0 0.3,0c0.4,0 0.9,0.1 1.3,0.1l0,0l0,0c0.4,0 0.9,0 1.3,-0.1c0.1,0 0.2,0 0.3,0c0.3,0 0.7,-0.1 1,-0.2c0.1,0 0.3,-0.1 0.4,-0.1c0.3,-0.1 0.6,-0.2 0.9,-0.2c0.1,0 0.3,-0.1 0.4,-0.1c0.3,-0.1 0.6,-0.2 1,-0.4c0.1,0 0.2,-0.1 0.3,-0.1c0.4,-0.2 0.8,-0.4 1.2,-0.6c0.1,-0.1 0.2,-0.1 0.3,-0.2c0.3,-0.2 0.5,-0.3 0.8,-0.5c0.1,-0.1 0.3,-0.2 0.4,-0.3c0.1,-0.1 0.3,-0.2 0.4,-0.3l198.9,-169.9l0,269z"/>
  </g>
  <g id="svg_3"/>
  <g id="svg_4"/>
  <g id="svg_5"/>
  <g id="svg_6"/>
  <g id="svg_7"/>
  <g id="svg_8"/>
  <g id="svg_9"/>
  <g id="svg_10"/>
  <g id="svg_11"/>
  <g id="svg_12"/>
  <g id="svg_13"/>
  <g id="svg_14"/>
  <g id="svg_15"/>
  <g id="svg_16"/>
  <g id="svg_17"/>
 </g>
</svg>