<svg width="32" height="32" xmlns="http://www.w3.org/2000/svg">
 <g>
  <title>background</title>
  <rect x="-1" y="-1" width="5.124999" height="5.124999" id="canvas_background" fill="none"/>
 </g>

 <g>
  <title>Layer 1</title>
  <rect id="svg_2" height="44.454561" width="65.363659" y="-3.342202" x="-14.226855" fill-opacity="null" stroke-opacity="null" stroke-width="null" stroke="null" fill="#ffffff"/>
  <path stroke="null" d="m21.19403,-3.613411l-12.11124,0c-11.052139,0 -13.672152,2.620013 -13.672152,13.672152l0,12.11124c0,11.052139 2.620013,13.672152 13.672152,13.672152l12.11124,0c11.052139,0 13.672152,-2.620013 13.672152,-13.672152l0,-12.11124c0,-11.052139 -2.645905,-13.672152 -13.672152,-13.672152zm6.068566,28.145719l-2.864136,0c-1.084994,0 -1.419122,-0.860597 -3.370878,-2.838244c-1.695302,-1.643519 -2.446167,-1.86175 -2.864136,-1.86175c-0.590582,0 -0.758263,0.166448 -0.758263,0.976494l0,2.587956c0,0.694149 -0.218232,1.110885 -2.055323,1.110885c-3.037982,0 -6.40886,-1.837091 -8.772419,-5.259753c-3.56445,-5.015629 -4.539712,-8.772419 -4.539712,-9.549176c0,-0.417969 0.166448,-0.808813 0.969097,-0.808813l2.870301,0c0.726206,0 1.002386,0.334129 1.284731,1.110885c1.419122,4.097084 3.782682,7.686193 4.757943,7.686193c0.360021,0 0.526468,-0.166448 0.526468,-1.084994l0,-4.231475c-0.109732,-1.951755 -1.136777,-2.119436 -1.136777,-2.812353c0,-0.334129 0.27618,-0.668257 0.718808,-0.668257l4.51382,0c0.610309,0 0.834705,0.334129 0.834705,1.052937l0,5.708546c0,0.616474 0.27618,0.834705 0.442628,0.834705c0.360021,0 0.668257,-0.218232 1.335282,-0.886489c2.061488,-2.311776 3.538558,-5.876226 3.538558,-5.876226c0.19234,-0.417969 0.526468,-0.808813 1.252674,-0.808813l2.870301,0c0.860597,0 1.052937,0.442628 0.860597,1.059102c-0.360021,1.669411 -3.872687,6.627091 -3.872687,6.627091c-0.302072,0.500577 -0.417969,0.718808 0,1.277333c0.308237,0.417969 1.310623,1.284731 1.977647,2.061488c1.226782,1.39323 2.169987,2.562064 2.421508,3.370878c0.282345,0.802649 -0.134391,1.220618 -0.944438,1.220618l0.003699,0.001233z" id="svg_1" fill="#f14d34"/>
  <path id="svg_3" d="m2.773156,10.566895" opacity="0.5" fill-opacity="null" stroke-opacity="null" stroke-width="null" stroke="null" fill="#f14d34"/>
 </g>
</svg>